<svg xmlns="http://www.w3.org/2000/svg" version="1.1" xmlns:xlink="http://www.w3.org/1999/xlink" xmlns:svgjs="http://svgjs.dev/svgjs" width="2000" height="1976" viewBox="0 0 2000 1976"><g transform="matrix(1,0,0,1,-1.8163701067614966,0.7999999999999545)"><svg viewBox="0 0 250 247" data-background-color="#ffffff" preserveAspectRatio="xMidYMid meet" height="1976" width="2000" xmlns="http://www.w3.org/2000/svg" xmlns:xlink="http://www.w3.org/1999/xlink"><g id="tight-bounds" transform="matrix(1,0,0,1,0.22704626334518707,-0.09999999999999432)"><svg viewBox="0 0 249.5459074733096 247.2" height="247.2" width="249.5459074733096"><g><svg viewBox="0 0 249.5459074733096 247.2" height="247.2" width="249.5459074733096"><g><svg viewBox="0 0 249.5459074733096 247.2" height="247.2" width="249.5459074733096"><g id="textblocktransform"><svg viewBox="0 0 249.5459074733096 247.2" height="247.2" width="249.5459074733096" id="textblock"><g><svg viewBox="0 0 249.5459074733096 247.2" height="247.2" width="249.5459074733096"><g transform="matrix(1,0,0,1,0,0)"><svg width="249.5459074733096" viewBox="-0.45 -34.55 42.550000000000004 42.15" height="247.2" data-palette-color="#bc6ff1"><path d="M10.2-34.55L10.2-5Q10.2 0.4 7.85 3.18 5.5 5.95 1.25 7.6L1.25 7.6-0.45 3.1Q1.4 2.2 2.3 1.18 3.2 0.15 3.5-1.3 3.8-2.75 3.8-5.25L3.8-5.25 3.8-34.55 10.2-34.55ZM23.25-27.15Q27.95-27.15 31.2-24.05L31.2-24.05 28.85-20.7Q27.45-21.7 26.2-22.2 24.95-22.7 23.65-22.7L23.65-22.7Q22.2-22.7 21.37-21.93 20.55-21.15 20.55-19.8L20.55-19.8Q20.55-18.45 21.47-17.63 22.4-16.8 25.2-15.7L25.2-15.7Q28.65-14.35 30.3-12.5 31.95-10.65 31.95-7.55L31.95-7.55Q31.95-3.7 29.25-1.48 26.55 0.75 22.4 0.75L22.4 0.75Q19.7 0.75 17.42-0.23 15.15-1.2 13.45-2.95L13.45-2.95 16.45-6.25Q19.25-3.8 22.15-3.8L22.15-3.8Q23.8-3.8 24.75-4.67 25.7-5.55 25.7-7.1L25.7-7.1Q25.7-8.25 25.3-8.97 24.9-9.7 23.9-10.33 22.9-10.95 20.9-11.7L20.9-11.7Q17.45-13.05 15.97-14.85 14.5-16.65 14.5-19.45L14.5-19.45Q14.5-22.8 16.87-24.98 19.25-27.15 23.25-27.15L23.25-27.15ZM38.3-7.05Q40-7.05 41.05-5.9 42.1-4.75 42.1-3.15L42.1-3.15Q42.1-1.55 41.05-0.4 40 0.75 38.3 0.75L38.3 0.75Q36.65 0.75 35.57-0.4 34.5-1.55 34.5-3.15L34.5-3.15Q34.5-4.75 35.57-5.9 36.65-7.05 38.3-7.05L38.3-7.05Z" opacity="1" transform="matrix(1,0,0,1,0,0)" fill="#bc6ff1" class="wordmark-text-0" data-fill-palette-color="primary" id="text-0"></path></svg></g></svg></g></svg></g></svg></g><g></g></svg></g><defs></defs></svg><rect width="249.5459074733096" height="247.2" fill="none" stroke="none" visibility="hidden"></rect></g></svg></g></svg>